<svg id="Layer_1" data-name="Layer 1" xmlns="http://www.w3.org/2000/svg" viewBox="0 0 500 500"><defs><style>.cls-1{fill:#faac48;}.cls-2{fill:#e5e6e6;}.cls-3{fill:#c8c8c8;}.cls-4{fill:#ffd03b;}.cls-5{fill:#ed2b2f;}.cls-6{fill:#be2126;}.cls-7{fill:none;stroke:#000;stroke-linecap:round;stroke-linejoin:round;stroke-width:20px;}</style></defs><title>invitation-card</title><path class="cls-1" d="M305.72,54,261.5,19.39a18.65,18.65,0,0,0-23,0L194.28,54Z"/><polygon class="cls-1" points="440.29 245.39 489.24 210.76 440.29 172.42 440.29 245.39"/><polygon class="cls-1" points="59.71 172.42 10.77 210.76 59.71 245.39 59.71 172.42"/><polygon class="cls-2" points="250 380.04 440.29 245.39 440.29 54.03 59.71 54.03 59.71 245.39 250 380.04"/><polygon class="cls-3" points="407.93 54.03 407.93 268.3 440.29 245.39 440.29 54.03 407.93 54.03"/><path class="cls-4" d="M465.82,484.58H34.18a23.42,23.42,0,0,1-23.42-23.41V210.76L250,380,489.24,210.76V461.17A23.42,23.42,0,0,1,465.82,484.58Z"/><path class="cls-1" d="M456.87,233.66V461.17a23.41,23.41,0,0,1-23.41,23.41h32.36a23.42,23.42,0,0,0,23.42-23.41V210.76Z"/><path class="cls-5" d="M250,170.91c8.48-27.07,62.3-31.46,68.37,13C325.29,234.43,250,271,250,271s-75.29-36.61-68.37-87.15C187.71,139.45,241.52,143.84,250,170.91Z"/><path class="cls-6" d="M318.37,183.89c-4.25-31.12-31.92-38.29-51-30.5,10.51,4.45,19.18,14.17,21.42,30.5,4.93,36.08-32,65.05-53.56,78.68C243.83,268,250,271,250,271S325.29,234.43,318.37,183.89Z"/><path class="cls-7" d="M250,170.91c8.48-27.07,62.3-31.46,68.37,13C325.29,234.43,250,271,250,271s-75.29-36.61-68.37-87.15C187.71,139.45,241.52,143.84,250,170.91Z"/><path class="cls-7" d="M465.82,484.58H34.18a23.42,23.42,0,0,1-23.42-23.41V210.76L250,380,489.24,210.76V461.17A23.42,23.42,0,0,1,465.82,484.58Z"/><polygon class="cls-7" points="250 380.04 440.29 245.39 440.29 54.03 59.71 54.03 59.71 245.39 250 380.04"/><path class="cls-7" d="M305.72,54,261.5,19.39a18.65,18.65,0,0,0-23,0L194.28,54Z"/><polygon class="cls-7" points="440.29 245.39 489.24 210.76 440.29 172.42 440.29 245.39"/><polygon class="cls-7" points="59.71 172.42 10.77 210.76 59.71 245.39 59.71 172.42"/></svg>