<?xml version="1.0" encoding="UTF-8" standalone="no"?>
<!-- Created with Inkscape (http://www.inkscape.org/) -->

<svg
   width="191.9026mm"
   height="65.771469mm"
   viewBox="0 0 191.9026 65.771469"
   version="1.1"
   id="svg23884"
   inkscape:version="1.1 (c4e8f9e, 2021-05-24)"
   sodipodi:docname="invitease_logo.svg"
   xmlns:inkscape="http://www.inkscape.org/namespaces/inkscape"
   xmlns:sodipodi="http://sodipodi.sourceforge.net/DTD/sodipodi-0.dtd"
   xmlns:xlink="http://www.w3.org/1999/xlink"
   xmlns="http://www.w3.org/2000/svg"
   xmlns:svg="http://www.w3.org/2000/svg">
  <sodipodi:namedview
     id="namedview23886"
     pagecolor="#ffffff"
     bordercolor="#666666"
     borderopacity="1.0"
     inkscape:pageshadow="2"
     inkscape:pageopacity="0.0"
     inkscape:pagecheckerboard="false"
     inkscape:document-units="mm"
     showgrid="false"
     lock-margins="true"
     fit-margin-top="15"
     fit-margin-left="15"
     fit-margin-right="15"
     fit-margin-bottom="15"
     inkscape:zoom="2.2271324"
     inkscape:cx="625.24347"
     inkscape:cy="120.55861"
     inkscape:window-width="1440"
     inkscape:window-height="847"
     inkscape:window-x="0"
     inkscape:window-y="25"
     inkscape:window-maximized="1"
     inkscape:current-layer="layer1"
     width="191.9026mm"
     units="mm" />
  <defs
     id="defs23881">
    <inkscape:path-effect
       effect="fillet_chamfer"
       id="path-effect27262"
       is_visible="true"
       lpeversion="1"
       satellites_param="F,0,0,1,0,31.75,0,1 @ F,0,0,1,0,31.75,0,1 @ F,0,0,1,0,31.75,0,1 @ F,0,0,1,0,31.75,0,1"
       unit="px"
       method="bezier"
       mode="F"
       radius="120"
       chamfer_steps="1"
       flexible="false"
       use_knot_distance="false"
       apply_no_radius="true"
       apply_with_radius="true"
       only_selected="false"
       hide_knots="false" />
    <inkscape:path-effect
       effect="fillet_chamfer"
       id="path-effect26812"
       is_visible="true"
       lpeversion="1"
       satellites_param="F,0,0,1,0,3.96875,0,1 @ F,0,0,1,0,3.96875,0,1 @ F,0,0,1,0,3.96875,0,1 @ F,0,0,1,0,3.96875,0,1"
       unit="px"
       method="auto"
       mode="F"
       radius="15"
       chamfer_steps="1"
       flexible="false"
       use_knot_distance="true"
       apply_no_radius="true"
       apply_with_radius="true"
       only_selected="true"
       hide_knots="false" />
    <rect
       x="302.97729"
       y="767.03107"
       width="782.3717"
       height="189.84019"
       id="rect2365" />
    <style
       id="style24891">.cls-1{fill:#faac48;}.cls-2{fill:#e5e6e6;}.cls-3{fill:#c8c8c8;}.cls-4{fill:#ffd03b;}.cls-5{fill:#ed2b2f;}.cls-6{fill:#be2126;}.cls-7{fill:none;stroke:#000;stroke-linecap:round;stroke-linejoin:round;stroke-width:20px;}</style>
    <linearGradient
       inkscape:collect="always"
       xlink:href="#linearGradient22081"
       id="linearGradient22083"
       x1="-13.423044"
       y1="141.90076"
       x2="1315.4584"
       y2="561.86438"
       gradientUnits="userSpaceOnUse"
       gradientTransform="matrix(0.91572666,0,0,1.098476,-364.97901,-162.65839)" />
    <linearGradient
       inkscape:collect="always"
       id="linearGradient22081">
      <stop
         style="stop-color:#3cdefd;stop-opacity:1"
         offset="0"
         id="stop22077" />
      <stop
         style="stop-color:#bb00e3;stop-opacity:1"
         offset="1"
         id="stop22079" />
    </linearGradient>
  </defs>
  <g
     inkscape:groupmode="layer"
     id="layer3"
     inkscape:label="Layer 2"
     transform="translate(-45.767835,-174.77755)">
    <path
       id="rect20954"
       clip-path="none"
       style="fill:url(#linearGradient22083);fill-opacity:1;stroke-width:10.5191;stroke-linecap:round;stroke-linejoin:round;stroke-opacity:0.987903;paint-order:markers fill stroke"
       inkscape:transform-center-x="34.812265"
       inkscape:transform-center-y="24.533811"
       d="m 0,31.75 v 185.08594 c 0,17.53504 14.214959,31.75 31.75,31.75 h 661.80078 c 17.53504,0 31.75,-14.21496 31.75,-31.75 V 31.75 C 725.30078,14.214959 711.08582,0 693.55078,0 H 31.75 C 14.214959,0 0,14.214959 0,31.75 Z"
       transform="matrix(0.26458333,0,0,0.26458333,45.767835,174.77755)"
       inkscape:path-effect="#path-effect27262"
       inkscape:original-d="M 0 0 L 0 248.58594 L 725.30078 248.58594 L 725.30078 0 L 0 0 z " />
  </g>
  <g
     inkscape:label="Layer 1"
     inkscape:groupmode="layer"
     id="layer1"
     transform="translate(-45.767835,-174.77755)">
    <g
       id="g1085"
       transform="matrix(0.07313232,0,0,0.07313231,60.712254,189.37924)"
       inkscape:export-filename="/Users/yaron/Pictures/invitease_logo.png"
       inkscape:export-xdpi="90"
       inkscape:export-ydpi="90">
      <path
         class="cls-1"
         d="M 305.72,54 261.5,19.39 a 18.65,18.65 0 0 0 -23,0 L 194.28,54 Z"
         id="path1036" />
      <polygon
         class="cls-1"
         points="440.29,245.39 489.24,210.76 440.29,172.42 "
         id="polygon1038" />
      <polygon
         class="cls-1"
         points="59.71,172.42 10.77,210.76 59.71,245.39 "
         id="polygon1040" />
      <polygon
         class="cls-2"
         points="440.29,54.03 59.71,54.03 59.71,245.39 250,380.04 440.29,245.39 "
         id="polygon1042" />
      <polygon
         class="cls-3"
         points="407.93,54.03 407.93,268.3 440.29,245.39 440.29,54.03 "
         id="polygon1044" />
      <path
         class="cls-4"
         d="M 465.82,484.58 H 34.18 A 23.42,23.42 0 0 1 10.76,461.17 V 210.76 L 250,380 489.24,210.76 v 250.41 a 23.42,23.42 0 0 1 -23.42,23.41 z"
         id="path1046" />
      <path
         class="cls-1"
         d="m 456.87,233.66 v 227.51 a 23.41,23.41 0 0 1 -23.41,23.41 h 32.36 a 23.42,23.42 0 0 0 23.42,-23.41 V 210.76 Z"
         id="path1048" />
      <path
         class="cls-5"
         d="m 250,170.91 c 8.48,-27.07 62.3,-31.46 68.37,13 C 325.29,234.43 250,271 250,271 c 0,0 -75.29,-36.61 -68.37,-87.15 6.08,-44.4 59.89,-40.01 68.37,-12.94 z"
         id="path1050" />
      <path
         class="cls-6"
         d="m 318.37,183.89 c -4.25,-31.12 -31.92,-38.29 -51,-30.5 10.51,4.45 19.18,14.17 21.42,30.5 4.93,36.08 -32,65.05 -53.56,78.68 8.6,5.43 14.77,8.43 14.77,8.43 0,0 75.29,-36.57 68.37,-87.11 z"
         id="path1052" />
      <path
         class="cls-7"
         d="m 250,170.91 c 8.48,-27.07 62.3,-31.46 68.37,13 C 325.29,234.43 250,271 250,271 c 0,0 -75.29,-36.61 -68.37,-87.15 6.08,-44.4 59.89,-40.01 68.37,-12.94 z"
         id="path1054" />
      <path
         class="cls-7"
         d="M 465.82,484.58 H 34.18 A 23.42,23.42 0 0 1 10.76,461.17 V 210.76 L 250,380 489.24,210.76 v 250.41 a 23.42,23.42 0 0 1 -23.42,23.41 z"
         id="path1056" />
      <polygon
         class="cls-7"
         points="440.29,54.03 59.71,54.03 59.71,245.39 250,380.04 440.29,245.39 "
         id="polygon1058" />
      <path
         class="cls-7"
         d="M 305.72,54 261.5,19.39 a 18.65,18.65 0 0 0 -23,0 L 194.28,54 Z"
         id="path1060" />
      <polygon
         class="cls-7"
         points="440.29,245.39 489.24,210.76 440.29,172.42 "
         id="polygon1062" />
      <polygon
         class="cls-7"
         points="59.71,172.42 10.77,210.76 59.71,245.39 "
         id="polygon1064" />
    </g>
    <g
       aria-label="Invitease"
       transform="matrix(0.26458333,0,0,0.26458333,-21.808926,9.7246943)"
       id="text2363"
       style="font-size:120px;line-height:0;text-align:center;white-space:pre;shape-inside:url(#rect2365)">
      <path
         id="path27969"
         style="font-family:Pacifico;-inkscape-font-specification:Pacifico"
         d="m 920.65652,778.35089 q 1.56,0 2.4,1.44 0.96,1.44 0.96,3.96 0,4.32 -2.04,7.44 -3.36,5.16 -8.88,8.04 -5.4,2.88 -12.96,2.88 -11.52,0 -17.88,-6.84 -6.36,-6.96 -6.36,-18.72 0,-8.28 3.48,-15.36 3.48,-7.2 9.6,-11.4 6.24,-4.2 14.04,-4.2 6.96,0 11.16,4.2 4.2,4.08 4.2,11.16 0,8.28 -6,14.28 -5.88,5.88 -20.16,9.36 2.88,5.52 9.72,5.52 4.92,0 8.04,-2.28 3.24,-2.28 7.44,-7.68 1.44,-1.8 3.24,-1.8 z m -19.68,-21 q -4.44,0 -7.56,5.16 -3,5.16 -3,12.48 v 0.24 q 7.08,-1.68 11.16,-5.04 4.08,-3.36 4.08,-7.8 0,-2.28 -1.32,-3.6 -1.2,-1.44 -3.36,-1.44 z m -52.28812,47.4 q -6.24,0 -9.6,-2.88 -3.24,-2.88 -3.24,-6.48 0,-3.12 2.28,-5.4 2.28,-2.28 6.72,-2.28 1.56,0 3.6,0.36 2.16,0.24 3.24,0.36 -0.12,-3.12 -1.44,-5.88 -1.2,-2.76 -3.12,-5.28 -1.92,-2.64 -3.6,-4.56 -3.72,7.08 -7.44,11.76 -3.6,4.68 -7.92,8.88 -2.16,2.16 -4.56,2.16 -1.92,0 -3.12,-1.32 -1.2,-1.44 -1.2,-3.48 0,-2.4 1.68,-4.44 l 1.56,-1.92 q 6.6,-8.16 9.96,-13.44 2.04,-3.48 4.8,-9.24 2.76,-5.88 5.4,-12.12 2.28,-5.28 9.48,-5.28 3.36,0 4.68,0.6 1.32,0.6 1.32,1.92 0,0.72 -0.48,2.28 -0.48,1.56 -1.32,3.12 -2.16,4.32 -2.16,7.32 0,1.8 1.2,3.96 1.32,2.16 3.96,5.4 3.84,5.04 5.76,8.64 2.04,3.48 2.04,7.68 0,1.2 -0.24,3.36 5.88,-2.28 13.8,-12.12 1.44,-1.68 3.24,-1.68 1.56,0 2.4,1.44 0.96,1.44 0.96,3.96 0,4.56 -2.28,7.44 -6,7.44 -11.52,10.2 -5.4,2.64 -13.44,2.88 -4.8,4.08 -11.4,4.08 z m -64.04438,-2.64 q -7.44,0 -11.88,-5.4 -4.44,-5.4 -4.44,-14.16 0,-9.6 4.44,-18.12 4.44,-8.64 11.76,-13.8 7.44,-5.28 15.72,-5.28 2.64,0 3.48,1.08 0.96,0.96 1.56,3.6 2.52,-0.48 5.28,-0.48 5.88,0 5.88,4.2 0,2.52 -1.8,12 -2.76,13.8 -2.76,19.2 0,1.8 0.84,2.88 0.96,1.08 2.4,1.08 2.28,0 5.52,-2.88 3.24,-3 8.76,-9.6 1.44,-1.68 3.24,-1.68 1.56,0 2.4,1.44 0.96,1.44 0.96,3.96 0,4.8 -2.28,7.44 -4.92,6.12 -10.44,10.32 -5.52,4.2 -10.68,4.2 -3.96,0 -7.32,-2.64 -3.24,-2.76 -4.92,-7.44 -6.24,10.08 -15.72,10.08 z m 4.32,-12.12 q 2.64,0 5.04,-3.12 2.4,-3.12 3.48,-8.28 l 4.44,-22.08 q -5.04,0.12 -9.36,3.84 -4.2,3.6 -6.72,9.6 -2.52,6 -2.52,12.72 0,3.72 1.44,5.52 1.56,1.8 4.2,1.8 z m -11.96625,-15.24 q 1.56,0 2.4,1.44 0.96,1.44 0.96,3.96 0,4.8 -2.28,7.44 -4.44,5.4 -12.6,9.96 -8.04,4.56 -17.28,4.56 -12.6,0 -19.56,-6.84 -6.96,-6.84 -6.96,-18.72 0,-8.28 3.48,-15.36 3.48,-7.2 9.6,-11.4 6.24,-4.2 14.04,-4.2 6.96,0 11.16,4.2 4.2,4.08 4.2,11.16 0,8.28 -6,14.28 -5.88,5.88 -20.04,9.36 3,5.52 11.4,5.52 5.4,0 12.24,-3.72 6.96,-3.84 12,-9.96 1.44,-1.68 3.24,-1.68 z m -30.24,-17.4 q -4.44,0 -7.56,5.16 -3,5.16 -3,12.48 v 0.24 q 7.08,-1.68 11.16,-5.04 4.08,-3.36 4.08,-7.8 0,-2.28 -1.32,-3.6 -1.2,-1.44 -3.36,-1.44 z m -16.86937,17.4 q 1.56,0 2.4,1.44 0.96,1.44 0.96,3.96 0,4.8 -2.28,7.44 -5.16,6.36 -11.28,10.44 -6.12,4.08 -14.04,4.08 -24.48,0 -24.48,-34.44 0,-5.28 0.36,-10.68 h -4.68 q -3.6,0 -4.92,-1.32 -1.2,-1.32 -1.2,-4.2 0,-6.72 5.4,-6.72 h 6.84 q 2.04,-13.2 6.24,-24.12 4.2,-10.92 10.08,-17.4 6,-6.48 12.84,-6.48 5.04,0 7.92,4.44 2.88,4.44 2.88,11.16 0,18.6 -15.6,32.4 h 13.44 q 1.92,0 2.76,0.84 0.84,0.84 0.84,3.12 0,8.28 -13.56,8.28 h -14.64 q -0.24,6 -0.24,9.36 0,12.48 2.88,17.52 3,5.04 9.36,5.04 5.16,0 9.12,-3.12 3.96,-3.12 9.36,-9.36 1.44,-1.68 3.24,-1.68 z m -21,-66.48 q -1.8,0 -4.08,4.56 -2.16,4.44 -4.2,12.48 -1.92,7.92 -3.24,17.64 7.08,-6.12 10.56,-13.68 3.6,-7.68 3.6,-13.92 0,-7.08 -2.64,-7.08 z m -46.33125,29.4 q -5.04,0 -7.56,-2.28 -2.52,-2.4 -2.52,-6.6 0,-4.2 3.24,-6.96 3.36,-2.88 8.28,-2.88 4.44,0 7.2,2.16 2.76,2.16 2.76,6.12 0,4.8 -3.12,7.68 -3.12,2.76 -8.28,2.76 z m -0.96,64.44 q -7.8,0 -11.4,-5.52 -3.48,-5.52 -3.48,-14.64 0,-5.4 1.32,-13.8 1.44,-8.52 3.6,-15.84 1.08,-3.84 2.88,-5.28 1.8,-1.44 5.76,-1.44 6.12,0 6.12,4.08 0,3 -2.28,13.92 -2.88,13.2 -2.88,17.88 0,3.6 0.96,5.52 0.96,1.92 3.24,1.92 2.16,0 5.4,-3 3.24,-3 8.64,-9.48 1.44,-1.68 3.24,-1.68 1.56,0 2.4,1.44 0.96,1.44 0.96,3.96 0,4.8 -2.28,7.44 -11.88,14.52 -22.2,14.52 z m -9.26625,-37.08 q 0.36,-0.12 1.2,-0.12 1.8,0 2.76,1.2 0.96,1.2 0.96,3.24 0,3.72 -1.44,5.88 -1.44,2.04 -4.32,3 -5.52,1.8 -11.76,1.8 -5.28,0 -9.96,-1.44 -3.48,5.64 -7.68,11.64 -4.8,6.84 -8.28,9.36 -3.48,2.52 -7.92,2.52 -4.92,0 -7.8,-3.84 -2.76,-3.84 -3.48,-12.12 -1.44,-16.8 -1.44,-29.4 v -4.2 q 0.12,-3.96 2.16,-5.52 2.04,-1.56 6.12,-1.56 3.12,0 4.56,1.44 1.56,1.32 1.56,4.56 0,13.8 1.68,35.88 7.2,-10.68 10.8,-17.04 -1.8,-3.48 -1.8,-8.28 0,-4.08 1.8,-7.92 1.8,-3.84 4.92,-6.24 3.12,-2.4 7.08,-2.4 3.48,0 5.64,2.52 2.16,2.4 2.16,7.08 0,5.4 -2.88,12.36 4.56,-0.24 12.12,-1.8 z m -111.58313,37.08 q -4.56,0 -6.48,-4.8 -1.8,-4.8 -1.8,-15.36 0,-15.6 4.44,-29.64 1.08,-3.48 3.48,-5.04 2.52,-1.68 6.96,-1.68 2.4,0 3.36,0.6 0.96,0.6 0.96,2.28 0,1.92 -1.8,8.64 -1.2,4.8 -1.92,8.4 -0.72,3.6 -1.2,8.88 3.96,-10.32 8.88,-16.8 4.92,-6.48 9.6,-9.24 4.8,-2.76 8.76,-2.76 7.8,0 7.8,7.8 0,4.68 -2.64,16.92 -2.28,10.44 -2.28,13.8 0,4.8 3.48,4.8 2.4,0 5.64,-2.88 3.36,-3 8.88,-9.6 1.44,-1.68 3.24,-1.68 1.56,0 2.4,1.44 0.96,1.44 0.96,3.96 0,4.8 -2.28,7.44 -5.16,6.36 -11.16,10.44 -5.88,4.08 -13.44,4.08 -6.12,0 -9.24,-3.48 -3.12,-3.6 -3.12,-10.32 0,-3.36 1.68,-12 1.56,-7.56 1.56,-10.44 0,-1.92 -1.32,-1.92 -1.56,0 -4.44,4.08 -2.76,3.96 -5.76,10.56 -2.88,6.6 -4.68,13.92 -1.32,5.64 -3.12,7.68 -1.68,1.92 -5.4,1.92 z m -14.29687,-101.64 q 3.12,0 5.28,1.56 2.16,1.44 2.16,3.6 0,3.84 -2.4,6.24 -2.4,2.28 -6.84,2.28 -6.96,0 -10.56,0.12 -0.24,1.44 -2.16,12.96 -2.16,12.84 -2.64,15.72 l -2.52,15.72 q -2.64,17.64 -4.2,29.52 2.52,-0.12 6.84,-0.12 6.36,0 8.64,1.68 2.28,1.68 2.28,5.04 0,3.12 -2.52,5.28 -2.4,2.16 -6.84,2.16 -3,0 -9.48,-0.24 -6,-0.24 -7.92,-0.24 -7.56,0 -16.56,1.32 -3.96,0.6 -5.64,0.6 -2.64,0 -4.44,-1.44 -1.8,-1.44 -1.8,-4.2 0,-4.32 3.84,-6.72 3.84,-2.4 10.8,-2.52 l 5.64,-0.12 0.36,-2.64 q 2.88,-19.2 4.2,-27.12 l 2.64,-15.72 q 2.4,-13.92 4.32,-28.68 l -10.08,0.12 q -4.32,0 -6,-1.32 -1.56,-1.44 -1.56,-3.96 0,-8.16 11.76,-8.76 5.52,-0.24 13.44,-0.24 z" />
    </g>
  </g>
</svg>
