<?xml version="1.0" encoding="UTF-8" standalone="no"?>
<!-- Created with Inkscape (http://www.inkscape.org/) -->

<svg
   width="191.9026mm"
   height="65.771469mm"
   viewBox="0 0 191.9026 65.771469"
   version="1.1"
   id="svg23884"
   inkscape:version="1.1 (c4e8f9e, 2021-05-24)"
   sodipodi:docname="invitease_logo.svg"
   xmlns:inkscape="http://www.inkscape.org/namespaces/inkscape"
   xmlns:sodipodi="http://sodipodi.sourceforge.net/DTD/sodipodi-0.dtd"
   xmlns:xlink="http://www.w3.org/1999/xlink"
   xmlns="http://www.w3.org/2000/svg"
   xmlns:svg="http://www.w3.org/2000/svg">
  <sodipodi:namedview
     id="namedview23886"
     pagecolor="#ffffff"
     bordercolor="#666666"
     borderopacity="1.0"
     inkscape:pageshadow="2"
     inkscape:pageopacity="0.0"
     inkscape:pagecheckerboard="false"
     inkscape:document-units="mm"
     showgrid="false"
     lock-margins="true"
     fit-margin-top="15"
     fit-margin-left="15"
     fit-margin-right="15"
     fit-margin-bottom="15"
     inkscape:zoom="2.2271324"
     inkscape:cx="625.24347"
     inkscape:cy="120.55861"
     inkscape:window-width="1440"
     inkscape:window-height="847"
     inkscape:window-x="0"
     inkscape:window-y="25"
     inkscape:window-maximized="1"
     inkscape:current-layer="layer3"
     width="191.9026mm" />
  <defs
     id="defs23881">
    <inkscape:path-effect
       effect="fillet_chamfer"
       id="path-effect27262"
       is_visible="true"
       lpeversion="1"
       satellites_param="F,0,0,1,0,31.75,0,1 @ F,0,0,1,0,31.75,0,1 @ F,0,0,1,0,31.75,0,1 @ F,0,0,1,0,31.75,0,1"
       unit="px"
       method="bezier"
       mode="F"
       radius="120"
       chamfer_steps="1"
       flexible="false"
       use_knot_distance="false"
       apply_no_radius="true"
       apply_with_radius="true"
       only_selected="false"
       hide_knots="false" />
    <inkscape:path-effect
       effect="fillet_chamfer"
       id="path-effect26812"
       is_visible="true"
       lpeversion="1"
       satellites_param="F,0,0,1,0,3.96875,0,1 @ F,0,0,1,0,3.96875,0,1 @ F,0,0,1,0,3.96875,0,1 @ F,0,0,1,0,3.96875,0,1"
       unit="px"
       method="auto"
       mode="F"
       radius="15"
       chamfer_steps="1"
       flexible="false"
       use_knot_distance="true"
       apply_no_radius="true"
       apply_with_radius="true"
       only_selected="true"
       hide_knots="false" />
    <rect
       x="302.97729"
       y="767.03107"
       width="782.3717"
       height="189.84019"
       id="rect2365" />
    <style
       id="style24891">.cls-1{fill:#faac48;}.cls-2{fill:#e5e6e6;}.cls-3{fill:#c8c8c8;}.cls-4{fill:#ffd03b;}.cls-5{fill:#ed2b2f;}.cls-6{fill:#be2126;}.cls-7{fill:none;stroke:#000;stroke-linecap:round;stroke-linejoin:round;stroke-width:20px;}</style>
    <linearGradient
       inkscape:collect="always"
       xlink:href="#linearGradient22081"
       id="linearGradient22083"
       x1="-13.423044"
       y1="141.90076"
       x2="1315.4584"
       y2="561.86438"
       gradientUnits="userSpaceOnUse"
       gradientTransform="matrix(0.91572666,0,0,1.098476,-364.97901,-162.65839)" />
    <linearGradient
       inkscape:collect="always"
       id="linearGradient22081">
      <stop
         style="stop-color:#3cdefd;stop-opacity:1"
         offset="0"
         id="stop22077" />
      <stop
         style="stop-color:#bb00e3;stop-opacity:1"
         offset="1"
         id="stop22079" />
    </linearGradient>
  </defs>
  <g
     inkscape:groupmode="layer"
     id="layer3"
     inkscape:label="Layer 2"
     transform="translate(-45.767835,-174.77755)">
    <path
       id="rect20954"
       clip-path="none"
       style="fill:url(#linearGradient22083);fill-opacity:1;stroke-width:10.5191;stroke-linecap:round;stroke-linejoin:round;stroke-opacity:0.987903;paint-order:markers fill stroke"
       inkscape:transform-center-x="34.812265"
       inkscape:transform-center-y="24.533811"
       d="m 0,31.75 v 185.08594 c 0,17.53504 14.214959,31.75 31.75,31.75 h 661.80078 c 17.53504,0 31.75,-14.21496 31.75,-31.75 V 31.75 C 725.30078,14.214959 711.08582,0 693.55078,0 H 31.75 C 14.214959,0 0,14.214959 0,31.75 Z"
       transform="matrix(0.26458333,0,0,0.26458333,45.767835,174.77755)"
       inkscape:path-effect="#path-effect27262"
       inkscape:original-d="M 0 0 L 0 248.58594 L 725.30078 248.58594 L 725.30078 0 L 0 0 z " />
  </g>
  <g
     inkscape:label="Layer 1"
     inkscape:groupmode="layer"
     id="layer1"
     transform="translate(-45.767835,-174.77755)">
    <g
       id="g1085"
       transform="matrix(0.07313232,0,0,0.07313231,60.712254,189.37924)"
       inkscape:export-filename="/Users/yaron/Pictures/invitease_logo.png"
       inkscape:export-xdpi="90"
       inkscape:export-ydpi="90">
      <path
         class="cls-1"
         d="M 305.72,54 261.5,19.39 a 18.65,18.65 0 0 0 -23,0 L 194.28,54 Z"
         id="path1036" />
      <polygon
         class="cls-1"
         points="440.29,245.39 489.24,210.76 440.29,172.42 "
         id="polygon1038" />
      <polygon
         class="cls-1"
         points="59.71,172.42 10.77,210.76 59.71,245.39 "
         id="polygon1040" />
      <polygon
         class="cls-2"
         points="440.29,54.03 59.71,54.03 59.71,245.39 250,380.04 440.29,245.39 "
         id="polygon1042" />
      <polygon
         class="cls-3"
         points="407.93,54.03 407.93,268.3 440.29,245.39 440.29,54.03 "
         id="polygon1044" />
      <path
         class="cls-4"
         d="M 465.82,484.58 H 34.18 A 23.42,23.42 0 0 1 10.76,461.17 V 210.76 L 250,380 489.24,210.76 v 250.41 a 23.42,23.42 0 0 1 -23.42,23.41 z"
         id="path1046" />
      <path
         class="cls-1"
         d="m 456.87,233.66 v 227.51 a 23.41,23.41 0 0 1 -23.41,23.41 h 32.36 a 23.42,23.42 0 0 0 23.42,-23.41 V 210.76 Z"
         id="path1048" />
      <path
         class="cls-5"
         d="m 250,170.91 c 8.48,-27.07 62.3,-31.46 68.37,13 C 325.29,234.43 250,271 250,271 c 0,0 -75.29,-36.61 -68.37,-87.15 6.08,-44.4 59.89,-40.01 68.37,-12.94 z"
         id="path1050" />
      <path
         class="cls-6"
         d="m 318.37,183.89 c -4.25,-31.12 -31.92,-38.29 -51,-30.5 10.51,4.45 19.18,14.17 21.42,30.5 4.93,36.08 -32,65.05 -53.56,78.68 8.6,5.43 14.77,8.43 14.77,8.43 0,0 75.29,-36.57 68.37,-87.11 z"
         id="path1052" />
      <path
         class="cls-7"
         d="m 250,170.91 c 8.48,-27.07 62.3,-31.46 68.37,13 C 325.29,234.43 250,271 250,271 c 0,0 -75.29,-36.61 -68.37,-87.15 6.08,-44.4 59.89,-40.01 68.37,-12.94 z"
         id="path1054" />
      <path
         class="cls-7"
         d="M 465.82,484.58 H 34.18 A 23.42,23.42 0 0 1 10.76,461.17 V 210.76 L 250,380 489.24,210.76 v 250.41 a 23.42,23.42 0 0 1 -23.42,23.41 z"
         id="path1056" />
      <polygon
         class="cls-7"
         points="440.29,54.03 59.71,54.03 59.71,245.39 250,380.04 440.29,245.39 "
         id="polygon1058" />
      <path
         class="cls-7"
         d="M 305.72,54 261.5,19.39 a 18.65,18.65 0 0 0 -23,0 L 194.28,54 Z"
         id="path1060" />
      <polygon
         class="cls-7"
         points="440.29,245.39 489.24,210.76 440.29,172.42 "
         id="polygon1062" />
      <polygon
         class="cls-7"
         points="59.71,172.42 10.77,210.76 59.71,245.39 "

         id="polygon1064" />
    </g>
    <text
       xml:space="preserve"
       id="text2363"
       style="font-size:120px;line-height:0;font-family:sans-serif;text-align:center;white-space:pre;shape-inside:url(#rect2365)"
       x="-66.221931"
       y="0"
       transform="matrix(0.26458333,0,0,0.26458333,-21.808926,9.7246943)"
       inkscape:export-filename="/Users/yaron/Pictures/invitease_logo.png"
       inkscape:export-xdpi="90"
       inkscape:export-ydpi="90"><tspan
         x="467.1709"
         y="801.51089"
         id="tspan27951"><tspan
           style="font-family:Pacifico;-inkscape-font-specification:Pacifico"
           id="tspan27949">Invitease</tspan></tspan></text>

  </g>
</svg>
